<svg xmlns="http://www.w3.org/2000/svg" width="31" height="23"><defs><clipPath id="a"><path class="a" transform="translate(.097)" d="M0 0h31v23H0z"/></clipPath><style>.a{fill:#fff}</style></defs><path class="a" d="M26.317 2.376A25.636 25.636 0 0 0 19.989.413a.1.1 0 0 0-.1.048A17.858 17.858 0 0 0 19.1 2.08a23.667 23.667 0 0 0-7.107 0 16.378 16.378 0 0 0-.8-1.618.1.1 0 0 0-.1-.048 25.565 25.565 0 0 0-6.33 1.962.091.091 0 0 0-.042.036A26.238 26.238 0 0 0 .128 20.107a.107.107 0 0 0 .04.073 25.78 25.78 0 0 0 7.764 3.92.1.1 0 0 0 .109-.036 18.425 18.425 0 0 0 1.588-2.583.1.1 0 0 0-.054-.137 16.977 16.977 0 0 1-2.425-1.152.1.1 0 0 1-.01-.165c.163-.122.326-.249.482-.377a.1.1 0 0 1 .1-.014 18.385 18.385 0 0 0 15.624 0 .1.1 0 0 1 .1.012c.156.128.319.257.483.379a.1.1 0 0 1-.009.165 15.931 15.931 0 0 1-2.42 1.154.1.1 0 0 0-.053.138 20.688 20.688 0 0 0 1.587 2.582.1.1 0 0 0 .109.037 25.694 25.694 0 0 0 7.775-3.924.1.1 0 0 0 .04-.072 26.065 26.065 0 0 0-4.6-17.695.079.079 0 0 0-.041-.036zm-15.929 14.2a2.988 2.988 0 0 1-2.794-3.133 2.972 2.972 0 0 1 2.794-3.133 2.955 2.955 0 0 1 2.794 3.133 2.972 2.972 0 0 1-2.793 3.132zm10.33 0a2.988 2.988 0 0 1-2.794-3.133 2.972 2.972 0 0 1 2.794-3.133 2.955 2.955 0 0 1 2.794 3.133 2.964 2.964 0 0 1-2.793 3.132z" transform="translate(.425 -.773)" style="clip-path:url(#a)"/></svg>