<svg version="1.2" xmlns="http://www.w3.org/2000/svg" viewBox="0 0 55 37" width="55" height="37">
	<title>efi-footer-svg</title>
	<style>
		.s0 { fill: #8b96ab } 
	</style>
	<path id="&lt;Path&gt;" fill-rule="evenodd" class="s0" d="m43.6 10.4h4.1v19.5h-4.1zm8.4-10.4v6.1l-6.3 2.4c-1.2 0.4-2.1-0.3-2.1-1.3 0-0.5 0.3-0.9 0.8-1.3zm-29.9 19.8c0 1.4-0.7 2-2 2h-13c0.6 2.9 2.7 4.7 5.9 4.7 2.4 0 4.3-1 5.7-2.8l2.8 2.3c-1.9 2.6-4.8 4.3-8.4 4.3-5.8 0-10.1-4.4-10.1-10.3 0-5.8 4.3-9.9 9.7-9.9 6.2 0 9.4 5.2 9.4 9.7zm-4.2-1.7c-0.3-2.6-2.3-4.2-5.2-4.2-2.9 0-5 1.6-5.6 4.2zm11.4 11.8h-4v-11.1c0-5.2 3.6-8.7 8.9-8.7 2.4 0 4.5 0.7 6.3 2.1l-2.5 2.9c-1-0.7-2.3-1.2-3.9-1.2-2.8 0-4.9 1.8-4.8 4.9h10.1v3.6h-10.1zm-26 4.6c0.1-0.2 0.4-0.4 0.7-0.4 0.4 0 0.9 0.4 0.9 1 0 0.7-0.5 1.1-0.9 1.1-0.3 0-0.6-0.2-0.7-0.4l-0.1 0.3h-0.2v-2.9h0.3zm1.2 0.7c0-0.4-0.2-0.8-0.6-0.8-0.3 0-0.6 0.4-0.6 0.8 0 0.3 0.3 0.7 0.6 0.7 0.4 0 0.6-0.4 0.6-0.7zm1.3 1.7h-0.3l0.3-0.8-0.7-1.9h0.3l0.6 1.5 0.5-1.5h0.4zm3.6-1.1c0.2 0 0.4 0 0.5-0.1v-1.1h0.3v1.3c-0.2 0.2-0.5 0.3-0.8 0.3-0.7 0-1.4-0.6-1.4-1.5 0-0.8 0.7-1.4 1.4-1.4q0.4 0 0.8 0.2v0.4q-0.4-0.2-0.8-0.2c-0.6 0-1 0.4-1 1 0 0.7 0.4 1.1 1 1.1zm1.3-0.7c0-0.6 0.4-1 0.9-1 0.5 0 0.9 0.3 0.9 1q0 0.1 0 0.1h-1.5c0 0.4 0.3 0.7 0.7 0.7q0.3 0 0.7-0.3v0.3q-0.3 0.2-0.7 0.2c-0.6 0-1-0.4-1-1zm1.4-0.1c0-0.4-0.2-0.6-0.5-0.6-0.3 0-0.5 0.2-0.6 0.6zm0.8-0.9h0.3v0.3c0.1-0.2 0.4-0.3 0.6-0.3q0.1 0 0.1 0v0.3q-0.1 0-0.1 0c-0.3 0-0.6 0.2-0.6 0.6v1.1h-0.3zm1.2 1c0-0.6 0.4-1 0.9-1 0.5 0 0.9 0.3 0.9 0.9q0 0.1 0 0.2h-1.5c0.1 0.4 0.3 0.6 0.7 0.6q0.4 0 0.7-0.2v0.3q-0.3 0.2-0.7 0.2c-0.6 0-1-0.4-1-1zm1.5-0.2c0-0.4-0.3-0.6-0.6-0.6-0.3 0-0.5 0.3-0.6 0.6zm2.4-0.1v1.3h-0.3v-1.2q0-0.5-0.5-0.5c-0.2 0-0.4 0.2-0.4 0.5v1.2h-0.4v-2h0.3v0.3c0.1-0.2 0.4-0.3 0.6-0.3 0.5 0 0.7 0.2 0.7 0.7zm1.5 1c0.2 0 0.4 0 0.5-0.2v0.4q-0.2 0.1-0.5 0.1c-0.6 0-1-0.4-1-1 0-0.6 0.4-1 1-1q0.3 0 0.5 0.1v0.3q-0.2-0.1-0.5-0.1c-0.3 0-0.7 0.2-0.7 0.7 0 0.4 0.4 0.7 0.7 0.7zm1.2-2.2c-0.1 0-0.2 0-0.2-0.2 0-0.1 0.1-0.2 0.2-0.2 0.1 0 0.2 0.1 0.2 0.2 0 0.2-0.1 0.2-0.2 0.2zm-0.2 0.5h0.4v2h-0.4zm0.9 1c0-0.7 0.4-1.1 0.9-1.1 0.3 0 0.5 0.2 0.7 0.4v-0.3h0.3v1.9h-0.3v-0.3c-0.2 0.3-0.4 0.4-0.7 0.4-0.5 0-0.9-0.4-0.9-1zm1.6 0c0-0.4-0.3-0.8-0.7-0.8-0.3 0-0.6 0.4-0.6 0.8 0 0.4 0.3 0.7 0.6 0.7 0.4 0 0.7-0.3 0.7-0.7zm2.5-0.4v1.3h-0.3v-1.1q0-0.6-0.5-0.5c-0.2 0-0.5 0.2-0.5 0.4v1.2h-0.3v-1.9h0.3v0.3c0.1-0.2 0.3-0.4 0.6-0.4 0.4 0 0.7 0.3 0.7 0.7zm0.5 0.4c0-0.7 0.4-1.1 0.9-1.1 0.5 0 0.9 0.4 0.9 1q0 0.1 0 0.2h-1.5c0.1 0.4 0.3 0.6 0.7 0.6q0.4 0 0.7-0.3v0.4q-0.3 0.2-0.7 0.2c-0.6 0-1-0.4-1-1zm1.5-0.2c0-0.4-0.3-0.6-0.6-0.6-0.3 0-0.5 0.3-0.6 0.6zm1.2-0.8h0.6v0.3h-0.6v0.9c0 0.3 0.2 0.5 0.4 0.5q0.1 0 0.2 0v0.3q0 0-0.2 0c-0.4 0-0.7-0.3-0.7-0.7v-1h-0.3v-0.3h0.3v-0.5h0.3z"/>
</svg>