<svg xmlns="http://www.w3.org/2000/svg" width="30" height="30"><g style="stroke:#8d8c95;stroke-width:2px;fill:none"><rect width="30" height="30" rx="7" style="stroke:none"/><rect x="1" y="1" width="28" height="28" rx="6" style="fill:none"/></g><path d="M15.757 9.914a8.079 8.079 0 1 0 8.079 8.079 8.066 8.066 0 0 0-8.079-8.079zm0 13.331a5.252 5.252 0 1 1 5.252-5.252 5.262 5.262 0 0 1-5.252 5.252zM26.051 9.584A1.884 1.884 0 1 1 24.166 7.7a1.88 1.88 0 0 1 1.885 1.884z" transform="translate(-.843 -2.993)" style="fill:#8d8c95"/></svg>