<svg xmlns="http://www.w3.org/2000/svg" width="30" height="30"><g style="stroke:#8d8c95;stroke-width:2px;fill:none"><rect width="30" height="30" rx="7" style="stroke:none"/><rect x="1" y="1" width="28" height="28" rx="6" style="fill:none"/></g><path d="M3.006 13.43H.222V4.464h2.784zM1.612 3.241a1.62 1.62 0 1 1 1.613-1.628 1.626 1.626 0 0 1-1.613 1.628zM13.426 13.43h-2.778V9.065c0-1.04-.021-2.374-1.448-2.374-1.448 0-1.669 1.13-1.669 2.3v4.439H4.75V4.464h2.67v1.223h.039a2.926 2.926 0 0 1 2.634-1.448c2.818 0 3.336 1.856 3.336 4.266v4.925z" transform="translate(9.185 8.285)" style="fill:#8d8c95"/></svg>