<svg version="1.2" xmlns="http://www.w3.org/2000/svg" viewBox="0 0 247 193" width="247" height="193">
	<title>EFI</title>
	<style>
		.s0 { fill: #f37021 } 
	</style>
	<g id="Camada 1">
		<g id="&lt;Group&gt;">
			<path id="&lt;Path&gt;" class="s0" d="m224.6 151h-20.3v-97.9h20.3z"/>
			<path id="&lt;Path&gt;" class="s0" d="m246.4 0.7v31l-31.6 11.6c-5.9 2.3-10.5-1.4-10.5-6.2 0-2.8 1.5-4.7 3.9-6.5z"/>
			<path id="&lt;Compound Path&gt;" fill-rule="evenodd" class="s0" d="m96.1 100c0 7.2-3.7 10.2-10 10.2h-65.3c3 14.5 13.7 23.6 29.6 23.6 12 0 21.6-4.8 28.6-14l14.2 11.6c-9.6 12.7-24.2 21.4-42.3 21.4-29.2 0-50.8-22-50.8-51.5 0-29.5 21.5-50 48.8-50 31 0 47.2 26.2 47.2 48.7zm-20.8-8.3c-1.9-13.3-11.7-21.4-26.4-21.4-14.6 0-25.1 8.1-28.1 21.4z"/>
			<path id="&lt;Path&gt;" class="s0" d="m132.5 151h-20.3v-56.2c0-25.8 18.3-43.5 45-43.5 12.2 0 22.4 3.7 31.8 10.7l-12.9 14.6c-5-3.5-11.7-6.3-19.4-6.3-14.2 0-24.6 9.2-24.2 24.5h50.8v18.5h-50.8z"/>
			<path id="&lt;Compound Path&gt;" fill-rule="evenodd" class="s0" d="m134.4 185c0 4.4-3.3 7.3-9.1 7.3h-13.1v-26.4h13.2c4.8 0 7.9 2.6 7.9 6.7 0 2.4-1.2 4.5-3 5.8 2.3 1.3 4.1 3.5 4.1 6.6zm-17.9-15.2v7.4h8.7c2.1 0 3.6-1.7 3.6-3.9 0-2.2-1.6-3.5-4-3.5zm13.2 14.7c0-2.3-1.6-3.5-4-3.5h-9.2v7.5h8.3c2.9 0 4.9-1.5 4.9-4z"/>
			<path id="&lt;Path&gt;" class="s0" d="m201.5 165.9h4.3v26.4h-4.3z"/>
			<path id="&lt;Path&gt;" class="s0" d="m212.5 179.1l12.1 13.2h-5.4l-10.2-11c-1.3-1.4-1.2-2.9 0-4.3l10-11.1h5.5z"/>
			<path id="&lt;Path&gt;" class="s0" d="m188.4 165.9h4.3v23.5c0 1.7-1.1 2.9-2.5 2.9-1.1 0-2.2-0.6-3.1-1.8l-12.9-17.9 0.2 19.7h-4.3v-23.5c0-1.6 1.1-2.9 2.5-2.9 1.4 0 2.2 0.7 3 1.9l12.9 17.8z"/>
			<path id="&lt;Compound Path&gt;" fill-rule="evenodd" class="s0" d="m154.9 168.3l10.3 24h-4.7l-2.2-5.3h-13.7l-2.2 5.3h-4.6l10.3-24c0.7-1.5 1.8-2.4 3.4-2.4 1.9 0 2.8 1.1 3.4 2.4zm1.8 14.9l-5.3-12.8-5.2 12.8z"/>
		</g>
	</g>
</svg>