<svg xmlns="http://www.w3.org/2000/svg" width="30" height="30"><g style="stroke:#8d8c95;stroke-width:2px;fill:none"><rect width="30" height="30" rx="7" style="stroke:none"/><rect x="1" y="1" width="28" height="28" rx="6" style="fill:none"/></g><path d="M13.731 6.478c.01.136.01.272.01.408a8.863 8.863 0 0 1-8.925 8.924A8.864 8.864 0 0 1 0 14.4a6.489 6.489 0 0 0 .757.039A6.282 6.282 0 0 0 4.651 13.1a3.142 3.142 0 0 1-2.933-2.175 3.955 3.955 0 0 0 .592.049 3.317 3.317 0 0 0 .825-.107A3.137 3.137 0 0 1 .621 7.789v-.038a3.159 3.159 0 0 0 1.418.4 3.141 3.141 0 0 1-.971-4.195 8.915 8.915 0 0 0 6.467 3.28 3.541 3.541 0 0 1-.078-.719 3.14 3.14 0 0 1 5.428-2.146 6.175 6.175 0 0 0 1.991-.757A3.128 3.128 0 0 1 13.5 5.342a6.288 6.288 0 0 0 1.8-.485 6.742 6.742 0 0 1-1.573 1.622z" transform="translate(7.948 5.904)" style="fill:#8d8c95"/></svg>