<svg xmlns="http://www.w3.org/2000/svg" width="35.993" height="27"><path d="M35.759 10.462a5.465 5.465 0 0 0-5.2-5.709c-3.9-.183-7.868-.253-11.924-.253h-1.269c-4.05 0-8.029.07-11.924.253a5.477 5.477 0 0 0-5.2 5.723C.07 12.979-.007 15.482 0 17.985s.07 5.006.239 7.515a5.484 5.484 0 0 0 5.2 5.73c4.092.19 8.289.274 12.557.267q6.412.021 12.557-.267a5.485 5.485 0 0 0 5.2-5.73c.169-2.51.246-5.013.239-7.523q.02-3.753-.233-7.515zm-21.205 14.42V11.067l10.195 6.9z" transform="translate(0 -4.5)" style="fill:#8b96ab"/></svg>