<svg xmlns="http://www.w3.org/2000/svg" width="55" height="55"><defs><style>.b{fill:#8b96ab}</style></defs><path class="b" d="M27.492 5q5.779 3.372 11.559 6.741 3.517 2.044 7.054 4.055a1.158 1.158 0 0 1 .685 1.158c-.022 6.955-.008 13.909-.034 20.864a1.279 1.279 0 0 1-.464.946c-1.6.985-3.245 1.9-5.078 2.958v-1.164c0-6.723-.012-13.446.016-20.168a1.512 1.512 0 0 0-.871-1.557 871.236 871.236 0 0 1-12.2-7.043 1.3 1.3 0 0 0-1.515 0q-6.122 3.584-12.289 7.094a1.376 1.376 0 0 0-.8 1.394c.025 6.723.015 13.446.015 20.168v1.272c-1.87-1.085-3.608-2.071-5.311-3.117-.188-.116-.228-.578-.228-.88-.013-6.922 0-13.843-.025-20.764a1.166 1.166 0 0 1 .687-1.158q8.86-5.091 17.706-10.211c.311-.179.6-.391.9-.588z"/><path class="b" d="M27.294 49.716c-2.42-1.42-4.826-2.863-7.268-4.244a1.517 1.517 0 0 1-.92-1.532q.056-10.232.005-20.463a1.345 1.345 0 0 1 .8-1.384c1.533-.824 3.026-1.723 4.7-2.688v1.224c0 6.589.021 13.179-.022 19.768a2.208 2.208 0 0 0 1.11 2.056 2.5 2.5 0 0 0 3.407-.015 2.119 2.119 0 0 0 1.1-1.961c-.047-6.622-.024-13.245-.024-19.867v-1.2c1.822 1.046 3.484 1.982 5.121 2.962a.962.962 0 0 1 .35.717c.019 7.086.025 14.172-.016 21.258a1.512 1.512 0 0 1-.72 1c-2.457 1.487-4.945 2.922-7.423 4.373z"/></svg>