<svg version="1.2" baseProfile="tiny-ps" xmlns="http://www.w3.org/2000/svg" width="55" height="55"><style></style><g id="Layer"><path id="Layer" fill-rule="evenodd" d="M45.99 17.39v.04c.01.01.01.03.01.04v7.99c0 .05-.01.1-.02.15a.35.35 0 0 1-.06.14c-.02.05-.05.09-.09.12a.47.47 0 0 1-.12.09l-6.68 3.85v7.62c0 .2-.11.4-.29.5L24.8 45.95c-.03.02-.06.03-.1.05-.01 0-.02.01-.04.01-.02.01-.04.01-.07.02H24.44c-.02-.01-.05-.01-.07-.02-.02 0-.03-.01-.05-.02-.03-.01-.06-.02-.09-.04l-13.94-8.02c-.04-.02-.08-.06-.12-.09a.47.47 0 0 1-.09-.12.424.424 0 0 1-.06-.14.772.772 0 0 1-.02-.15V13.56c0-.05.01-.1.02-.15 0-.02.01-.03.02-.05.01-.03.02-.06.04-.09.01-.02.02-.03.04-.05.01-.02.03-.05.05-.07.02-.01.04-.03.06-.04.02-.02.04-.04.06-.05l6.97-4.01a.35.35 0 0 1 .14-.06c.05-.01.1-.02.15-.02.05 0 .1.01.15.02.05.01.09.03.14.06l6.97 4.01c.02.01.04.03.06.05.02.01.04.03.06.04.02.02.03.05.05.07.01.02.03.03.04.05.02.03.02.06.04.09 0 .02.01.03.02.05 0 .01 0 .03.01.04v.04c0 .01 0 .02.01.03v14.95l5.8-3.34v-7.62c0-.06.01-.11.02-.16.01-.01.02-.03.02-.04.02-.04.03-.07.04-.09.01-.02.03-.04.04-.06.02-.02.03-.04.05-.06.02-.02.04-.03.06-.05.02-.01.04-.03.06-.05l6.97-4.01c.05-.02.09-.04.14-.06.05-.01.1-.02.15-.02.05 0 .1.01.15.02.05.02.1.04.14.06L45.71 17c.02.02.04.04.06.05.02.02.04.03.06.05.02.02.04.04.05.06.02.02.03.04.04.06.02.02.03.05.04.09.01.01.02.03.02.04 0 .02.01.03.01.04zm-1.15 7.74v-6.62l-2.44 1.4-3.37 1.94v6.62l5.81-3.34zm-6.97 11.96v-6.62l-3.31 1.89-9.46 5.4v6.69l12.77-7.36zm-26.71 0 12.77 7.36v-6.68l-6.67-3.78c-.03-.02-.04-.04-.07-.05-.01-.02-.03-.03-.05-.04v-.01c-.02-.01-.03-.04-.05-.06-.01-.02-.03-.03-.04-.05v-.01a.09.09 0 0 1-.03-.07c-.01-.02-.03-.04-.03-.06-.01-.03-.01-.06-.01-.09-.01-.02-.01-.04-.01-.06V17.91l-3.37-1.94-2.44-1.4v22.52zm6.39-26.87zm-5.81 3.34 5.81 3.34 5.8-3.34-5.8-3.34-5.81 3.34zm8.83 17.52 3.37-1.94V14.57l-2.44 1.4-3.37 1.94v14.57l2.44-1.4zm12.08-13.57 5.8 3.34 5.81-3.34-5.81-3.35-5.8 3.35zm5.22 4.34-3.37-1.94-2.44-1.4v6.62l3.37 1.93 2.44 1.41v-6.62zM33.03 31.9l4.25-2.43-5.8-3.34-6.67 3.85-6.09 3.5 5.79 3.28 8.52-4.86z" style="fill:#8b96ab"/></g></svg>