<svg xmlns="http://www.w3.org/2000/svg" width="55" height="55"><defs><style>.b{fill:#8b96ab}</style></defs><path class="b" d="M27.407 45.856a18.429 18.429 0 1 1 18.434-18.414 18.449 18.449 0 0 1-18.434 18.414zm17.617-18.421a17.6 17.6 0 1 0-17.828 17.6 17.659 17.659 0 0 0 17.828-17.598z"/><path class="b" d="M20.338 22.01v-.732H13c2.5-5.2 6.479-8.46 12.18-9.29 5.614-.818 10.321 1.1 14.182 5.293a2.44 2.44 0 0 0-2.059 3.128 8.022 8.022 0 0 0 .567 1.931 9.645 9.645 0 0 1 .757 4.334 15.449 15.449 0 0 1-1.25 5.656c-.454 1.1-.867 2.214-1.3 3.321-.052.133-.109.265-.2.475l-.922-2.461q-1.856-4.953-3.7-9.909a1.98 1.98 0 0 1-.109-.845.862.862 0 0 1 .835-.809 5.49 5.49 0 0 1 .947-.066c.386.022.539-.116.477-.5-.012-.078-.012-.157-.02-.268h-10.87v.6c.439.105.869.177 1.277.313a2.339 2.339 0 0 1 1.548 1.469c.535 1.435 1.117 2.853 1.667 4.283a.718.718 0 0 1 .021.482q-1.643 3.972-3.312 7.934a1.921 1.921 0 0 1-.1.169c-.064-.124-.118-.208-.154-.3q-2.472-6.2-4.941-12.4a1.238 1.238 0 0 1 1.231-1.8c.186-.006.37-.008.586-.008z"/><path class="b" d="M32.615 42.282a15.783 15.783 0 0 1-10.154.069l5.364-12.491zM19.761 41.105a15.566 15.566 0 0 1-7.334-18.032zM35.393 40.966l6.976-18.113a15.611 15.611 0 0 1-6.976 18.113z"/></svg>