<svg xmlns="http://www.w3.org/2000/svg" width="55" height="55"><defs><style>.b{fill:#8b96ab}</style></defs><path class="b" d="M2 27.734a21.742 21.742 0 0 1 1.929-2.855c2.449-2.642 4.983-5.2 7.5-7.783a2.905 2.905 0 0 1 4.249-.321 3.192 3.192 0 0 1 .22 4.539c-2.062 2.232-4.2 4.392-6.454 6.734 2.092 2.175 4.142 4.327 6.218 6.453a2.939 2.939 0 0 1 .842 3.446 4.1 4.1 0 0 1-2.271 1.96 3.246 3.246 0 0 1-2.627-.778c-2.95-2.871-5.774-5.873-8.586-8.882A8.224 8.224 0 0 1 2 28.298zM53.839 28.297a20.568 20.568 0 0 1-1.894 2.871c-2.478 2.69-5.028 5.315-7.6 7.916a2.888 2.888 0 0 1-4.064.331 3.2 3.2 0 0 1-.753-4.064 5.215 5.215 0 0 1 .8-.969c1.974-2.067 3.955-4.127 6.04-6.3-.761-.815-1.476-1.6-2.207-2.362-1.425-1.492-2.9-2.936-4.276-4.475a3.183 3.183 0 0 1 .251-4.441 2.894 2.894 0 0 1 4.255.272c2.523 2.582 5.061 5.151 7.515 7.8a21.748 21.748 0 0 1 1.933 2.86zM19.724 43.858a9.822 9.822 0 0 1 .315-1.681q5.26-15.716 10.57-31.418a2.937 2.937 0 0 1 3.703-2.115 3.039 3.039 0 0 1 1.914 3.96c-1.43 4.41-2.913 8.802-4.392 13.195q-3.137 9.319-6.302 18.625a2.879 2.879 0 0 1-3.152 2.222 3.077 3.077 0 0 1-2.656-2.788z"/></svg>