<svg xmlns="http://www.w3.org/2000/svg" width="55" height="55"><defs><style>.b{fill:#8b96ab}</style></defs><path class="b" d="M45.646 35.366c-.6.238-1.2.488-1.811.711a18.89 18.89 0 0 1-6.541 1.21c-1.277 0-2.553-.131-3.83-.206a1.814 1.814 0 0 1-.244-.05 8.476 8.476 0 0 1 .979-2.416c.559-1.022 1.157-2.025 1.656-3.076a9.181 9.181 0 0 0 .615-5.9c-.144-.712-.36-1.41-.56-2.176.505.495.988.95 1.451 1.426a81.815 81.815 0 0 1 7.874 9.859c.132.186.273.366.41.549z"/><path class="b" d="M35.543 22.907c-.641-.5-1.219-1.007-1.847-1.44a3.516 3.516 0 0 1-1.031-1.1 8.439 8.439 0 0 0-7.334-4.274 8.666 8.666 0 0 0-8.32 5.909 1.247 1.247 0 0 1-.3.517 17.338 17.338 0 0 0-5.275 9 .66.66 0 0 1-.113.257 16.234 16.234 0 0 1 2.093-14.6c4.042-5.8 9.723-8.264 16.716-7.236a16.385 16.385 0 0 1 13.167 11.11 6.552 6.552 0 0 1-.584-.951 8.629 8.629 0 0 0-1.272-2.26 2.29 2.29 0 0 0-3.534-.364 4.783 4.783 0 0 0-.675.773 10.714 10.714 0 0 0-1.608 4.3c-.023.114-.05.225-.083.359zM24.117 33.535a25.938 25.938 0 0 0 5.116 2.642c.134-.383.253-.76.4-1.126a1.467 1.467 0 0 1 .28-.458c1.285-1.366 2.61-2.7 3.86-4.095a12.087 12.087 0 0 0 2.38-4.058c.071-.2.125-.412.187-.619l.1-.006c.037.766.122 1.532.1 2.3a11.348 11.348 0 0 1-1.783 5.306 23.9 23.9 0 0 0-1.315 2.4 4.9 4.9 0 0 0 1.172 5.665 1.482 1.482 0 0 0 .283.186l-.071.091c-.566 0-1.137.042-1.7-.01a6.454 6.454 0 0 1-2.423-.7 3 3 0 0 1-1.757-2.871.561.561 0 0 0-.306-.542 20.815 20.815 0 0 1-4.523-4.105z"/><path class="b" d="M32.607 20.561a13.77 13.77 0 0 0-15.332 1.283 8.429 8.429 0 0 1 6.442-5.494 8.493 8.493 0 0 1 8.89 4.211z"/><path class="b" d="m28.593 20.397.971 2.981c.113.347.229.694.336 1.043a3.739 3.739 0 0 0 .538 1.128 2.232 2.232 0 0 1-.374 2.975 2.288 2.288 0 0 1-2.959.025 1.409 1.409 0 0 0-.545-.25c-1.995-.494-3.991-.978-6.074-1.486.151-.054.226-.088.3-.107 1.928-.479 3.854-.966 5.786-1.426a.709.709 0 0 0 .595-.543c.421-1.351.871-2.693 1.31-4.038l.116-.302zm-.87 5.233a.851.851 0 0 0 .822.877.858.858 0 0 0 .882-.822.87.87 0 0 0-.826-.882.86.86 0 0 0-.877.827zM33.2 37.325a21.548 21.548 0 0 0 11.788-1.4c-.005.038 0 .061-.01.07a24.468 24.468 0 0 1-6.907 4.7 27.817 27.817 0 0 1-2.874.878.412.412 0 0 1-.337-.061 4.9 4.9 0 0 1-1.7-4.019 1.135 1.135 0 0 1 .04-.168zM30.15 34.017c.152-.34.337-.741.509-1.146.573-1.344 1.188-2.673 1.7-4.04a16.444 16.444 0 0 0 .86-5.5c.014-.651 0-1.3 0-2.024.267.186.5.35.735.512a3.633 3.633 0 0 1 1.507 1.46 13.085 13.085 0 0 1 .673 2.289 1.964 1.964 0 0 1-.176 1.026 15.667 15.667 0 0 1-3.483 5.17c-.756.793-1.568 1.527-2.325 2.253zM42.405 19.791a3.439 3.439 0 0 0-3.429-.774 4.823 4.823 0 0 0-2.27 1.756c-.25.308-.47.64-.752.949.023-.111.043-.224.073-.333a7.813 7.813 0 0 1 1.56-3.351 4.674 4.674 0 0 1 1.293-.98 1.568 1.568 0 0 1 1.456.085 4.705 4.705 0 0 1 2.069 2.648zM42.249 22.191l.694 3.141a2.556 2.556 0 0 0 .715 1.435c-.251.414-.483.813-.729 1.2-.161.254-.344.5-.69.492a.81.81 0 0 1-.7-.524 2.4 2.4 0 0 1-.213-1.633c.274-1.305.569-2.606.857-3.909.008-.042.026-.083.066-.202zm-.4 3.683c.061.423.217.71.428.707s.373-.292.351-.654c-.016-.255-.061-.571-.37-.544-.152.014-.275.318-.409.495z"/><path class="b" d="M27.283 48.616a21.308 21.308 0 1 1 21.315-21.291 21.331 21.331 0 0 1-21.315 21.291zm20.37-21.3a20.351 20.351 0 1 0-20.614 20.35 20.418 20.418 0 0 0 20.613-20.348z"/></svg>