<svg xmlns="http://www.w3.org/2000/svg" width="55" height="55"><defs><style>.b{fill:#8b96ab}</style></defs><path style="fill:transparent" d="M0 0h55v55H0z"/><path class="b" d="M51.307 19.289c-1.736-.273-3.463-.659-5.209-.8-9.517-.773-16.777 3.907-20.127 12.863a31.111 31.111 0 0 0-1.981 12.143c.026.714 0 1.43 0 2.221H8.031c.338-1.451.561-2.859.994-4.2 3.064-9.479 8.184-17.535 16.767-22.913 8.378-5.249 16.879-4.584 25.277.158a3.936 3.936 0 0 0 .508.2z"/><path class="b" d="M37.295 28.282c3.3 0 6.529-.118 9.743.038a5.84 5.84 0 0 1 5.111 4.951c.522 3.412-.7 6-3.389 7.143-.283.121-.578.216-1.033.385l5.521 5.8c-2.389 0-4.49.03-6.588-.031-.329-.01-.683-.4-.963-.677-1.124-1.117-2.224-2.258-3.585-3.647v4.279h-4.818zm4.566 8.9c1.17 0 2.294.058 3.409-.017 1.065-.071 1.434-.836 1.408-1.8-.028-1.021-.143-2.121-1.4-2.3a25.183 25.183 0 0 0-3.421-.032zM6.709 38.919l-4.537-1.767c.386-1 .748-1.957 1.119-2.908.361-.924.73-1.845 1.158-2.924l4.768 1.734zM26.391 39.764c.6.178.911.25 1.2.358 1.132.418 2.822.54 3.261 1.344.73 1.332.654 3.105.948 4.872-1.6-.4-2.988-.711-4.353-1.112a1.157 1.157 0 0 1-.712-.753c-.164-1.519-.232-3.048-.344-4.709zM14.159 19.026l3 2.741c-1.138 1.321-2.193 2.549-3.255 3.772a2.022 2.022 0 0 1-.368.257l-3.186-2.717zM30.473 37.87l-3.867-1.558 1.5-5.684c3.336 1.94 3.344 1.964 2.367 7.242zM20.572 13.899l4.561-2.547 2.021 3.224-4.543 2.538zM32.836 30.216l-2.969-2.668 3.584-3.835c.718 1.059 1.337 1.88 1.837 2.769a1.167 1.167 0 0 1-.167 1.019c-.681.895-1.449 1.73-2.285 2.715zM49.39 15.535c-1.629-.6-3.158-1.14-4.657-1.75a1.059 1.059 0 0 1-.512-.79c-.029-.8.065-1.614.125-2.662 1.735.656 3.331 1.231 4.895 1.882a1.056 1.056 0 0 1 .412.846c-.024.801-.162 1.598-.263 2.474zM42.018 23.582l-4.545 1.771-1.59-3.105c1.585-.544 3.082-1.086 4.6-1.545.179-.054.613.293.725.545.311.7.512 1.445.81 2.334zM37.891 12.557l-5.278.277-1.021-3.019c1.665-.155 3.217-.328 4.774-.416a1.007 1.007 0 0 1 .73.565c.307.787.506 1.615.795 2.593zM49.409 24.045c-1.442-.138-2.739-.237-4.026-.411a.892.892 0 0 1-.571-.585c-.174-.829-.256-1.678-.416-2.828l5.341.693-.328 3.131z"/></svg>